# AST/ASF file generated using VICON BodyLanguage
# -----------------------------------------------
:version 1.10
:name VICON
:units
  mass 1.0
  length 0.45
  angle deg
:documentation
   .ast/.asf automatically generated from VICON data using
   VICON BodyBuilder and BodyLanguage model FoxedUp or BRILLIANT.MOD
:root
   order TX TY TZ RX RY RZ
   axis XYZ
   position 0 0 0  
   orientation 0 0 0 
:bonedata
  begin
     id 1 
     name lhipjoint
     direction 0.522423 -0.726805 0.445902 
     length 2.25074 
     axis 0 0 0  XYZ
  end
  begin
     id 2 
     name lfemur
     direction 0.34202 -0.939693 0  
     length 6.54609  
     axis 0 0 20  XYZ
    dof rx ry rz
    limits (-160.0 20.0)
           (-70.0 70.0)
           (-60.0 70.0)
  end
  begin
     id 3 
     name ltibia
     direction 0.34202 -0.939693 0   
     length 7.7528   
     axis 0 0 20   XYZ
    dof rx
    limits (-10.0 170.0)
  end
  begin
     id 4 
     name lfoot
     direction 0.143696 -0.394801 0.90746   
     length 1.73269   
     axis -90 7.62852e-016 20   XYZ
    dof rx rz
    limits (-45.0 90.0)
           (-70.0 20.0)
  end
  begin
     id 5 
     name ltoes
     direction 1.53633e-011 -4.21912e-011 1   
     length 0.858383   
     axis -90 7.62852e-016 20   XYZ
    dof rx
    limits (-90.0 20.0)
  end
  begin
     id 6 
     name rhipjoint
     direction -0.515943 -0.73016 0.447961   
     length 2.2404  
     axis 0 0 0  XYZ 
  end
  begin
     id 7 
     name rfemur
     direction -0.34202 -0.939693 0   
     length 6.84377   
     axis 0 0 -20   XYZ
    dof rx ry rz
    limits (-160.0 20.0)
           (-70.0 70.0)
           (-70.0 60.0)
  end
  begin
     id 8 
     name rtibia
     direction -0.34202 -0.939693 0   
     length 7.57596   
     axis 0 0 -20   XYZ
    dof rx
    limits (-10.0 170.0)
 end
 begin
     id 9 
     name rfoot
     direction -0.0999372 -0.274575 0.956358   
     length 1.78783  
     axis -90 -7.62852e-016 -20   XYZ
    dof rx rz
    limits (-45.0 90.0)
           (-20.0 70.0)
  end
  begin
     id 10 
     name rtoes
     direction -1.53535e-011 -4.21895e-011 1   
     length 0.898614   
     axis -90 -7.62852e-016 -20   XYZ
    dof rx
    limits (-90.0 20.0)
  end
  begin
     id 11 
     name lowerback
     direction -0.011775 0.996164 -0.0867116   
     length 1.91499   
     axis 0 0 0   XYZ
    dof rx ry rz
    limits (-20.0 45.0)
           (-30.0 30.0)
           (-30.0 30.0)
  end
  begin
     id 12 
     name upperback
     direction -0.00189771 0.999673 -0.0254833   
     length 1.92213   
     axis 0 0 0   XYZ
    dof rx ry rz
    limits (-20.0 45.0)
           (-30.0 30.0)
           (-30.0 30.0)
  end
  begin
     id 13 
     name thorax
     direction 0.00335995 0.999878 0.0152401   
     length 1.93138   
     axis 0 0 0   XYZ
    dof rx ry rz
    limits (-20.0 45.0)
           (-30.0 30.0)
           (-30.0 30.0)
  end
  begin
     id 14 
     name lowerneck
     direction 0.00233191 0.998509 0.0545404   
     length 1.59408   
     axis 0 0 0   XYZ
    dof rx ry rz
    limits (-20.0 45.0)
           (-30.0 30.0)
           (-30.0 30.0)
  end
  begin
     id 15 
     name upperneck
     direction 0.07881 0.9956 -0.0506934   
     length 1.59344   
     axis 0 0 0   XYZ
    dof rx ry rz
    limits (-20.0 45.0)
           (-30.0 30.0)
           (-30.0 30.0)
  end
  begin
     id 16
     name head
     direction 0.0261681 0.999378 -0.0236299  
     length 1.60935  
     axis 0 0 0   XYZ
    dof rx ry rz
    limits (-20.0 45.0)
           (-30.0 30.0)
           (-30.0 30.0)
  end
  begin
     id 17 
     name lclavicle
     direction 0.96643 0.252035 0.0499195  
     length 3.82153  
     axis 0 0 0   XYZ
    dof ry rz
    limits (-20.0 10.0)
           (0.0 20.0)
  end
  begin
     id 18 
     name lhumerus
     direction 1 -4.48967e-011 -2.01614e-018   
     length 4.87796   
     axis 180 -30 -90   XYZ
    dof rx ry rz
    limits (-60.0 90.0)
           (-90.0 90.0)
           (-90.0 90.0)
  end
  begin
     id 19
     name lradius
     direction 1 -4.48958e-011 3.1409e-027   
     length 3.23169   
     axis 180 -30 -90   XYZ
    dof rx
    limits (-10.0 170.0)
  end
  begin
     id 20
     name lwrist
     direction 1 -4.48924e-011 1.0365e-027   
     length 1.61584   
     axis -2.56395e-016 90 90   XYZ
    dof ry
    limits (-180.0 0.0)
 end
  begin
     id 21 
     name lhand
     direction 1 -4.49055e-011 2.09488e-027   
     length 0.731324   
     axis -1.32723e-015 90 90   XYZ
    dof rx rz
    limits (-90.0 90.0)
           (-45.0 45.0)
  end
  begin
     id 22 
     name lfingers
     direction 1 -4.48935e-011 4.14981e-027   
     length 0.589612   
     axis -2.6545e-015 90 90   XYZ
    dof rx
    limits (0.0 90.0)
  end
  begin
     id 23
     name lthumb
     direction 0.707107 -6.35097e-011 0.707107   
     length 0.846569   
     axis -90 45 5.05613e-014   XYZ
    dof rx rz
    limits (-45.0 45.0)
           (-45.0 45.0)
  end
  begin
     id 24 
     name rclavicle
     direction -0.979337 0.201016 0.0221522   
     length 3.73827  
     axis 0 0 0   XYZ 
    dof ry rz
    limits (-10.0 20.0)
           (-20.0 0.0)
  end
  begin
     id 25 
     name rhumerus
     direction -1 -4.48971e-011 1.65907e-027  
     length 4.9143   
     axis 180 30 90   XYZ
    dof rx ry rz
    limits (-90.0 60.0)
           (-90.0 90.0)
           (-90.0 90.0)
  end
  begin
     id 26 
     name rradius
     direction -1 -4.4894e-011 2.17871e-028   
     length 3.29093   
     axis 180 30 90   XYZ
    dof rx
    limits (-10.0 170.0)
  end
  begin
     id 27 
     name rwrist
     direction -1 -4.48971e-011 1.04038e-027   
     length 1.64546   
     axis -2.56395e-016 -90 -90   XYZ
    dof ry
    limits (-180.0 0.0)
  end
  begin
     id 28
     name rhand
     direction -1 -4.49017e-011 2.08843e-027   
     length 0.54512   
     axis -1.32723e-015 -90 -90   XYZ
    dof rx rz
    limits (-90.0 90.0)
           (-45.0 45.0)
  end
  begin
     id 29
     name rfingers
     direction -1 -4.48918e-011 4.1439e-027   
     length 0.43949   
     axis -2.6545e-015 -90 -90   XYZ
    dof rx
    limits (0.0 90.0)
  end
  begin
     id 30
     name rthumb
     direction -0.707107 -6.35065e-011 0.707107   
     length 0.631022   
     axis -90 -45 -5.05613e-014   XYZ
    dof rx rz
    limits (-45.0 45.0)
           (-45.0 45.0)
  end
:hierarchy
  begin
    root lhipjoint rhipjoint lowerback
    lhipjoint lfemur
    lfemur ltibia
    ltibia lfoot
    lfoot ltoes
    rhipjoint rfemur
    rfemur rtibia
    rtibia rfoot
    rfoot rtoes
    lowerback upperback
    upperback thorax
    thorax lowerneck lclavicle rclavicle
    lowerneck upperneck
    upperneck head
    lclavicle lhumerus
    lhumerus lradius
    lradius lwrist
    lwrist lhand lthumb
    lhand lfingers
    rclavicle rhumerus
    rhumerus rradius
    rradius rwrist
    rwrist rhand rthumb
    rhand rfingers
  end

#!OML:ASF H:\BreakDance\Project 1\Capture day 1\Session 1\Male.ASF
:FULLY-SPECIFIED
:DEGREES
902
root 16.5686 15.6081 -1.04467 -162.367 -33.0443 182.07
lowerback 8.14347 -5.07416 -0.76615
upperback 6.25687 -7.27373 1.84954
thorax 2.2941 -3.89542 2.74235
lowerneck -2.11937 9.97288 1.95995
upperneck -12.8114 12.0489 -10.1221
head -3.00133 6.01135 -3.84778
rclavicle -4.65156e-014 2.22639e-014
rhumerus -3.93067 25.996 -82.5872
rradius 102.757
rwrist 0.455561
rhand -37.7249 -35.7413
rfingers 7.12502
rthumb -10.7739 -65.445
lclavicle -4.65156e-014 2.22639e-014
lhumerus 5.86221 -28.8268 69.4859
lradius 95.6789
lwrist -7.71701
lhand -22.5391 -42.7923
lfingers 7.12502
lthumb 3.8882 -12.848
rfemur -63.2382 8.35239 10.8531
rtibia 53.7363
rfoot -9.70311 8.55802
rtoes -18.2832
lfemur -12.1505 20.4524 -33.1741
ltibia 45.2167
lfoot -19.3135 -7.8866
ltoes -35.0592
903
root 16.5771 15.5288 -0.993032 -162.041 -31.4785 182.483
lowerback 7.89057 -5.31366 -0.726886
upperback 6.28212 -7.62046 2.29752
thorax 2.53936 -4.08819 3.16478
lowerneck -2.19939 10.2797 2.07779
upperneck -12.7358 12.4397 -10.4344
head -2.90587 6.20079 -3.95675
rclavicle 6.71892e-014 -1.82882e-014
rhumerus -0.548389 25.5399 -81.4642
rradius 100.888
rwrist 1.00627
rhand -37.6713 -34.9742
rfingers 7.12502
rthumb -10.7222 -64.6806
lclavicle 6.71892e-014 -1.82882e-014
lhumerus 8.48966 -27.7544 65.3724
lradius 93.939
lwrist -6.66433
lhand -23.675 -43.4573
lfingers 7.12502
lthumb 2.79123 -13.4959
rfemur -65.0605 9.03248 11.3925
rtibia 55.0026
rfoot -8.47908 7.96529
rtoes -14.6688
lfemur -10.8208 21.8302 -34.7361
ltibia 40.26
lfoot -20.0946 -6.99515
ltoes -34.5876
904
root 16.5873 15.4502 -0.941084 -161.712 -30.061 182.858
lowerback 7.67378 -5.57796 -0.829195
upperback 6.31176 -8.01996 2.83376
thorax 2.81286 -4.31948 3.75707
lowerneck -2.22729 10.5957 1.92979
upperneck -12.7225 12.8449 -10.6101
head -2.86619 6.40572 -3.98256
rclavicle 3.49861e-014 -1.66979e-014
rhumerus 2.68047 25.2386 -80.4306
rradius 99.0269
rwrist 1.32103
rhand -37.5605 -34.2697
rfingers 7.12502
rthumb -10.6153 -63.9816
lclavicle 3.49861e-014 -1.66979e-014
lhumerus 10.8578 -26.5682 61.2652
lradius 92.0869
lwrist -5.63363
lhand -24.5995 -43.9778
lfingers 7.12502
lthumb 1.8984 -14.0065
rfemur -66.7336 9.74181 11.7868
rtibia 56.1211
rfoot -7.22185 7.24017
rtoes -9.53164
lfemur -9.45783 22.8029 -36.1761
ltibia 35.2711
lfoot -20.6576 -6.19075
ltoes -33.0695
905
root 16.5987 15.3757 -0.889523 -161.43 -28.8345 183.141
lowerback 7.54399 -5.85696 -1.05055
upperback 6.37437 -8.45869 3.37677
thorax 3.10651 -4.58222 4.42718
lowerneck -2.25617 10.892 1.64765
upperneck -12.7379 13.2299 -10.6481
head -2.85683 6.60183 -3.94235
rclavicle -1.74931e-014 0
rhumerus 5.704 24.9841 -79.5578
rradius 97.2223
rwrist 1.44867
rhand -37.366 -33.7663
rfingers 7.12502
rthumb -10.4278 -63.4878
lclavicle -1.74931e-014 0
lhumerus 13.0234 -25.4084 57.0695
lradius 90.1321
lwrist -4.67994
lhand -25.2895 -44.3688
lfingers 7.12502
lthumb 1.23196 -14.3926
rfemur -68.133 10.4598 11.9661
rtibia 57.0022
rfoot -5.98195 6.43759
rtoes -2.55422
lfemur -7.94321 23.3845 -37.4643
ltibia 30.4286
lfoot -21.1147 -5.60371
ltoes -30.597
906
root 16.6073 15.3156 -0.839436 -161.228 -27.8051 183.31
lowerback 7.51289 -6.13145 -1.33776
upperback 6.47645 -8.90316 3.8447
thorax 3.3998 -4.85472 5.06302
lowerneck -2.29457 11.1311 1.41824
upperneck -12.7496 13.5503 -10.564
head -2.85494 6.75984 -3.8705
rclavicle -8.66701e-014 1.43125e-014
rhumerus 8.43937 24.6629 -78.9438
rradius 95.506
rwrist 1.47257
rhand -37.0145 -33.4873
rfingers 7.12502
rthumb -10.0886 -63.2255
lclavicle -8.66701e-014 1.43125e-014
lhumerus 15.0633 -24.4327 52.6912
lradius 88.057
lwrist -3.8483
lhand -25.8056 -44.6808
lfingers 7.12502
lthumb 0.733506 -14.7023
rfemur -69.1564 11.1684 11.8967
rtibia 57.5761
rfoot -4.88693 5.63852
rtoes 5.65024
lfemur -6.3075 23.5721 -38.568
ltibia 25.9389
lfoot -21.4418 -5.62655
ltoes -25.7504
907
root 16.6102 15.2741 -0.7921 -161.103 -26.9475 183.373
lowerback 7.53132 -6.37218 -1.59897
upperback 6.62321 -9.30013 4.14745
thorax 3.68714 -5.10018 5.51444
lowerneck -2.33857 11.2827 1.45531
upperneck -12.7343 13.7697 -10.3949
head -2.83702 6.85423 -3.81254
rclavicle -2.06736e-014 5.56597e-015
rhumerus 10.8046 24.1452 -78.7101
rradius 93.8887
rwrist 1.50587
rhand -36.4741 -33.4192
rfingers 7.12502
rthumb -9.56722 -63.182
lclavicle -2.06736e-014 5.56597e-015
lhumerus 17.0998 -23.804 48.0317
lradius 85.8378
lwrist -3.18856
lhand -26.2515 -44.9936
lfingers 7.12502
lthumb 0.302842 -15.014
rfemur -69.8152 11.8558 11.5843
rtibia 57.8623
rfoot -4.07472 4.97408
rtoes 13.2577
lfemur -4.61233 23.3978 -39.5018
ltibia 21.8607
lfoot -21.7487 -5.9168
ltoes -19.3385
908
root 16.6097 15.239 -0.748567 -161.038 -26.2306 183.376
lowerback 7.56404 -6.54676 -1.76904
upperback 6.78347 -9.59174 4.27043
thorax 3.92714 -5.28014 5.72828
lowerneck -2.32288 11.3276 1.86712
upperneck -12.7005 13.8601 -10.1819
head -2.80771 6.87027 -3.80478
rclavicle 1.09332e-013 -3.18055e-014
rhumerus 12.7168 23.3606 -78.865
rradius 92.3735
rwrist 1.63862
rhand -35.7522 -33.5181
rfingers 7.12502
rthumb -8.87069 -63.3116
lclavicle 1.09332e-013 -3.18055e-014
lhumerus 19.2055 -23.6319 43.1401
lradius 83.4734
lwrist -2.74749
lhand -26.6613 -45.3645
lfingers 7.12502
lthumb -0.092929 -15.3848
rfemur -70.2587 12.5087 11.1031
rtibia 57.9708
rfoot -3.59616 4.58884
rtoes 18.0793
lfemur -2.84142 22.933 -40.2916
ltibia 18.1228
lfoot -22.2709 -5.90271
ltoes -13.4792
909
root 16.6066 15.2021 -0.709892 -161.007 -25.6239 183.376
lowerback 7.58509 -6.67895 -1.84894
upperback 6.91479 -9.80799 4.30263
thorax 4.10315 -5.40958 5.79831
lowerneck -2.1889 10.4866 2.46181
upperneck -12.8005 13.9688 -9.78388
head -2.85586 7.54826 -3.82034
rclavicle 3.26007e-014 0
rhumerus 14.2209 22.4878 -79.2331
rradius 90.9577
rwrist 1.87678
rhand -34.8997 -33.7492
rfingers 7.12502
rthumb -8.04799 -63.5759
lclavicle 3.26007e-014 0
lhumerus 21.2457 -23.8113 38.2666
lradius 81.0162
lwrist -2.5759
lhand -26.9955 -45.7917
lfingers 7.12502
lthumb -0.415787 -15.8123
rfemur -70.6289 13.1093 10.5498
rtibia 58.0399
rfoot -3.49516 4.55645
rtoes 18.6314
lfemur -0.907125 22.3024 -40.9653
ltibia 14.3313
lfoot -22.8953 -5.48876
ltoes -8.7923
910
root 16.6025 15.1555 -0.67682 -160.988 -25.0645 183.431
lowerback 7.54677 -6.76103 -1.82053
upperback 7.0085 -9.93998 4.29916
thorax 4.23564 -5.48492 5.76662
lowerneck -1.96117 10.4133 3.05612
upperneck -12.8366 13.8866 -9.48357
head -2.89555 7.46968 -3.83838
rclavicle -7.03698e-014 2.94201e-014
rhumerus 15.3736 21.6222 -79.6712
rradius 89.6456
rwrist 2.20828
rhand -34.0048 -34.079
rfingers 7.12502
rthumb -7.18422 -63.937
lclavicle -7.03698e-014 2.94201e-014
lhumerus 23.1546 -24.2676 33.6288
lradius 78.5482
lwrist -2.73461
lhand -27.1762 -46.2135
lfingers 7.12502
lthumb -0.590298 -16.2346
rfemur -71.0553 13.6661 10.0341
rtibia 58.1737
rfoot -3.80388 4.83989
rtoes 14.1151
lfemur 1.47017 22.8449 -41.5075
ltibia 9.78236
lfoot -23.1699 -5.95739
ltoes -4.62323
911
root 16.5992 15.0905 -0.650261 -160.964 -24.541 183.562
lowerback 7.46085 -6.83803 -1.72648
upperback 7.04503 -10.0572 4.35857
thorax 4.33225 -5.54826 5.76245
lowerneck -1.69932 10.3212 3.4705
upperneck -12.89 13.7826 -9.19575
head -2.96129 7.38901 -3.83632
rclavicle 2.46493e-014 -3.33958e-014
rhumerus 16.2667 21.0007 -79.9761
rradius 88.4478
rwrist 2.57506
rhand -33.1375 -34.4597
rfingers 7.12502
rthumb -6.34696 -64.3446
lclavicle 2.46493e-014 -3.33958e-014
lhumerus 24.6629 -24.8435 29.5662
lradius 76.2077
lwrist -3.2692
lhand -27.0859 -46.5454
lfingers 7.12502
lthumb -0.503022 -16.5663
rfemur -71.6205 14.1429 9.65292
rtibia 58.4509
rfoot -4.57466 5.28478
rtoes 4.72045
lfemur 6.74634 23.3781 -41.7727
ltibia -3.81667e-014
lfoot -21.1898 -5.83147
ltoes -2.47327
912
root 16.5905 15.025 -0.629935 -160.915 -24.0447 183.747
lowerback 7.32446 -6.90123 -1.57996
upperback 7.03994 -10.151 4.47068
thorax 4.41044 -5.59659 5.78059
lowerneck -1.47247 10.202 3.7318
upperneck -12.9405 13.6444 -8.93031
head -3.03142 7.29867 -3.8145
rclavicle -4.6118e-014 4.13472e-014
rhumerus 16.9184 20.6118 -80.1015
rradius 87.4017
rwrist 2.92727
rhand -32.3261 -34.8636
rfingers 7.12502
rthumb -5.56357 -64.7706
lclavicle -4.6118e-014 4.13472e-014
lhumerus 25.7439 -25.5073 26.1992
lradius 74.1461
lwrist -4.16098
lhand -26.6236 -46.7265
lfingers 7.12502
lthumb -0.0565506 -16.7467
rfemur -72.2175 14.4927 9.4422
rtibia 58.8165
rfoot -5.84208 5.70579
rtoes -7.0302
lfemur 6.56513 23.8752 -42.1197
ltibia -3.81667e-014
lfoot -23.5325 -5.83729
ltoes -0.438954
